<svg width="24" height="24" viewBox="0 0 24 24" fill="none" xmlns="http://www.w3.org/2000/svg">
<rect width="24" height="24" rx="4" fill="#8DC351"/>
<path d="M12 21C16.9706 21 21 16.9706 21 12C21 7.02944 16.9706 3 12 3C7.02944 3 3 7.02944 3 12C3 16.9706 7.02944 21 12 21Z" fill="#8DC351"/>
<path d="M14.9289 8.92538C14.4924 7.81613 13.3978 7.71601 12.1232 7.96351L11.6692 6.3812L10.7062 6.65738L11.1484 8.19863C10.8952 8.27063 10.6376 8.35051 10.3817 8.42926L9.93731 6.87788L8.97487 7.15351L9.42769 8.73582C9.22069 8.79994 9.01706 8.86294 8.81737 8.92032L8.81569 8.9147L7.48706 9.29551L7.78237 10.3249C7.78237 10.3249 8.49 10.1066 8.48156 10.1235C8.87194 10.0116 9.06375 10.2017 9.15656 10.3868L9.67406 12.189C9.7005 12.1817 9.73594 12.1727 9.77756 12.1665L9.67575 12.1958L10.3997 14.7214C10.4177 14.8491 10.4019 15.0656 10.1297 15.1444C10.1449 15.1517 9.42881 15.3446 9.42881 15.3446L9.56775 16.5501L10.821 16.1901C11.0544 16.1243 11.2851 16.0624 11.5106 15.9988L11.9702 17.5991L12.9321 17.3235L12.4781 15.7401C12.7361 15.6716 12.9934 15.6004 13.2499 15.5263L13.701 17.103L14.6646 16.8268L14.2067 15.2293C15.7991 14.6719 16.8156 13.9389 16.5202 12.3774C16.2829 11.1208 15.5505 10.7394 14.5678 10.7822C15.0448 10.3378 15.2501 9.73707 14.9289 8.92594V8.92538ZM14.5633 12.7335C14.9064 13.9299 12.8196 14.3811 12.1671 14.5689L11.559 12.4483C12.2115 12.261 14.205 11.4864 14.5627 12.7341L14.5633 12.7335ZM13.2572 9.87038C13.5688 10.9588 11.8245 11.3216 11.2806 11.4774L10.7293 9.55426C11.2727 9.39845 12.9315 8.73582 13.2572 9.87094V9.87038Z" fill="white"/>
</svg>
