<svg width="24" height="24" viewBox="0 0 24 24" fill="none" xmlns="http://www.w3.org/2000/svg">
<rect width="24" height="24" rx="4" fill="#F7931A"/>
<path d="M12 21C16.9706 21 21 16.9706 21 12C21 7.02944 16.9706 3 12 3C7.02944 3 3 7.02944 3 12C3 16.9706 7.02944 21 12 21Z" fill="#F7931A"/>
<path d="M16.0438 10.8863C16.2204 9.70725 15.3221 9.07331 14.0948 8.65031L14.493 7.05281L13.521 6.81094L13.1329 8.36625C12.8775 8.30212 12.6154 8.2425 12.3538 8.18287L12.7448 6.61744L11.7728 6.375L11.3745 7.97194C11.163 7.92356 10.9549 7.87631 10.7535 7.82569L10.7546 7.82062L9.41363 7.48594L9.15488 8.52431C9.15488 8.52431 9.87657 8.68969 9.86138 8.69981C10.2551 8.79825 10.326 9.05869 10.3142 9.26569L9.86082 11.0854C9.88782 11.0921 9.92269 11.1023 9.96207 11.1174L9.85913 11.0921L9.22351 13.6414C9.17513 13.7606 9.05307 13.9401 8.77744 13.872C8.78757 13.8861 8.07094 13.6959 8.07094 13.6959L7.58832 14.8086L8.85394 15.1241C9.08907 15.1832 9.31969 15.2451 9.54638 15.303L9.14419 16.9185L10.1156 17.1604L10.5139 15.5629C10.7794 15.6343 11.037 15.7007 11.289 15.7637L10.8919 17.3544L11.8639 17.5963L12.2661 15.9842C13.9243 16.2981 15.1708 16.1715 15.6956 14.6719C16.1186 13.4648 15.6748 12.7678 14.8024 12.3139C15.438 12.1676 15.9161 11.7497 16.0438 10.8863ZM13.8219 14.0014C13.5221 15.2091 11.4887 14.556 10.8294 14.3923L11.3638 12.252C12.0231 12.4168 14.1364 12.7425 13.8219 14.0014ZM14.1229 10.8688C13.8489 11.9674 12.1569 11.4088 11.6085 11.2721L12.0923 9.3315C12.6407 9.46819 14.4086 9.723 14.1229 10.8688Z" fill="white"/>
</svg>
