<svg width="24" height="24" viewBox="0 0 24 24" fill="none" xmlns="http://www.w3.org/2000/svg">
<rect width="24" height="24" rx="4" fill="#F5F6FA"/>
<path d="M7.49645 11.6776H5.60645V10.8776H7.49645V8.98764H8.42645V10.8776H10.3164V11.6776H8.42645V13.5676H7.49645V11.6776ZM13.3093 14.5976C12.7027 14.5976 12.2193 14.4176 11.8593 14.0576C11.4993 13.6976 11.3193 13.2143 11.3193 12.6076H12.2493C12.2493 12.9543 12.346 13.231 12.5393 13.4376C12.7327 13.6443 12.9893 13.7476 13.3093 13.7476H14.2693C14.6227 13.7476 14.9093 13.6443 15.1293 13.4376C15.3493 13.231 15.4593 12.9576 15.4593 12.6176V12.0276C15.4593 11.7143 15.346 11.461 15.1193 11.2676C14.8993 11.0743 14.606 10.9776 14.2393 10.9776H11.5693V7.51764H16.1493V8.36764H12.5193V10.1376H14.2393C14.8927 10.1376 15.416 10.311 15.8093 10.6576C16.2093 10.9976 16.4093 11.4543 16.4093 12.0276V12.6176C16.4093 13.011 16.3193 13.3576 16.1393 13.6576C15.966 13.9576 15.716 14.191 15.3893 14.3576C15.0693 14.5176 14.696 14.5976 14.2693 14.5976H13.3093Z" fill="#959CBD"/>
</svg>
