<svg width="24" height="24" viewBox="0 0 24 24" fill="none" xmlns="http://www.w3.org/2000/svg">
<rect width="24" height="24" rx="4" fill="#3B546C"/>
<path d="M12 21C16.9706 21 21 16.9706 21 12C21 7.02944 16.9706 3 12 3C7.02944 3 3 7.02944 3 12C3 16.9706 7.02944 21 12 21Z" fill="#3B536C"/>
<path d="M15.9769 7.5H17.6025L14.2191 10.8508C13.6275 11.4336 12.8304 11.7603 12 11.7603C11.1696 11.7603 10.3725 11.4336 9.78094 10.8508L6.39469 7.5H8.02313L10.5938 10.0442C10.9681 10.4137 11.4729 10.6208 11.9989 10.6208C12.5248 10.6208 13.0297 10.4137 13.404 10.0442L15.9769 7.5ZM8.00344 16.8167H6.375L9.78094 13.4456C10.3725 12.8628 11.1696 12.5361 12 12.5361C12.8304 12.5361 13.6275 12.8628 14.2191 13.4456L17.625 16.8161H15.9966L13.4062 14.25C13.0319 13.8805 12.5271 13.6733 12.0011 13.6733C11.4752 13.6733 10.9703 13.8805 10.596 14.25L8.00288 16.8167H8.00344Z" fill="white"/>
</svg>
