<svg width="17" height="18" viewBox="0 0 17 18" fill="none" xmlns="http://www.w3.org/2000/svg">
<path fill-rule="evenodd" clip-rule="evenodd" d="M13.2222 1.5C13.2222 1.22386 13.4461 1 13.7222 1H14.6389H15.5556C15.8317 1 16.0556 1.22386 16.0556 1.5V8.5C16.0556 8.77614 15.8317 9 15.5556 9H15.1111V16.5278C15.1111 16.7886 14.8997 17 14.6389 17C14.3781 17 14.1667 16.7886 14.1667 16.5278V9H13.7222C13.4461 9 13.2222 8.77614 13.2222 8.5V1.5ZM0.5 4C0.223858 4 0 4.22386 0 4.5V11.5C0 11.7761 0.223857 12 0.5 12H0.944444V16.5278C0.944444 16.7886 1.15587 17 1.41667 17C1.67747 17 1.88889 16.7886 1.88889 16.5278V12H2.33333C2.60948 12 2.83333 11.7761 2.83333 11.5V4.5C2.83333 4.22386 2.60948 4 2.33333 4H1.88889V1.47222C1.88889 1.21142 1.67747 1 1.41667 1C1.15587 1 0.944444 1.21142 0.944444 1.47222V4H0.5ZM7.11111 8C6.83497 8 6.61111 8.22386 6.61111 8.5V16.5C6.61111 16.7761 6.83497 17 7.11111 17H8.02778H8.94444C9.22059 17 9.44444 16.7761 9.44444 16.5V8.5C9.44444 8.22386 9.22059 8 8.94444 8H8.5V1.47222C8.5 1.21142 8.28858 1 8.02778 1C7.76698 1 7.55556 1.21142 7.55556 1.47222V8H7.11111Z" fill="#959CBD"/>
</svg>
